<?xml version="1.0" encoding="UTF-8" standalone="no"?>
<!-- Created with Inkscape (http://www.inkscape.org/) -->

<svg
   xmlns:dc="http://purl.org/dc/elements/1.1/"
   xmlns:cc="http://creativecommons.org/ns#"
   xmlns:rdf="http://www.w3.org/1999/02/22-rdf-syntax-ns#"
   xmlns:svg="http://www.w3.org/2000/svg"
   xmlns="http://www.w3.org/2000/svg"
   xmlns:sodipodi="http://sodipodi.sourceforge.net/DTD/sodipodi-0.dtd"
   xmlns:inkscape="http://www.inkscape.org/namespaces/inkscape"
   version="1.0"
   width="175.746"
   height="134.765"
   id="svg2"
   inkscape:version="0.47 r22583"
   sodipodi:docname="Sinclair_Oil_logo.svg">
  <metadata
     id="metadata34">
    <rdf:RDF>
      <cc:Work
         rdf:about="">
        <dc:format>image/svg+xml</dc:format>
        <dc:type
           rdf:resource="http://purl.org/dc/dcmitype/StillImage" />
        <dc:title>generated by pstoedit version:3.45 from c:/docume~1/mendaliv/locals~1/temp/gsviewa03272</dc:title>
      </cc:Work>
    </rdf:RDF>
  </metadata>
  <sodipodi:namedview
     pagecolor="#ffffff"
     bordercolor="#666666"
     borderopacity="1"
     objecttolerance="10"
     gridtolerance="10"
     guidetolerance="10"
     inkscape:pageopacity="0"
     inkscape:pageshadow="2"
     inkscape:window-width="1024"
     inkscape:window-height="689"
     id="namedview32"
     showgrid="false"
     inkscape:zoom="3.1578588"
     inkscape:cx="87.874001"
     inkscape:cy="67.386249"
     inkscape:window-x="0"
     inkscape:window-y="27"
     inkscape:window-maximized="1"
     inkscape:current-layer="svg2" />
  <defs
     id="defs77">
    <inkscape:perspective
       sodipodi:type="inkscape:persp3d"
       inkscape:vp_x="0 : 67.3825 : 1"
       inkscape:vp_y="0 : 1000 : 0"
       inkscape:vp_z="175.746 : 67.3825 : 1"
       inkscape:persp3d-origin="87.873001 : 44.921666 : 1"
       id="perspective36" />
  </defs>
  <title
     id="title4">generated by pstoedit version:3.45 from c:/docume~1/mendaliv/locals~1/temp/gsviewa03272</title>
  <g
     id="g2980">
    <path
       id="path2978"
       d="m -0.0019989,0.00749969 0,134.75000031 175.7499989,0 0,-134.75000031 -175.7499989,0 z"
       style="fill:#ffffff;fill-opacity:1;fill-rule:evenodd;stroke-width:0;stroke-linecap:butt;stroke-linejoin:miter;stroke-miterlimit:2.61310005" />
    <g
       transform="translate(-209.766,-303.672)"
       style="fill:#008000;fill-opacity:1;fill-rule:evenodd;stroke-width:0;stroke-linecap:butt;stroke-linejoin:miter;stroke-miterlimit:2.61310005"
       id="g12">
      <path
         d="m 0,0 0,134.75 175.75,0 L 175.75,0 0,0 z m 2.9375,2.9375 169.84375,0 0,128.875 -169.84375,0 0,-128.875 z m 2.59375,2.40625 0,124.0625 164.6875,0 0,-124.0625 -164.6875,0 z m 81.6875,7.84375 c 21.859,0 44.90224,0.664999 65.28125,5.5 4.137,0.981 7.09351,2.8905 8.8125,5.6875 1.871,3.039 2.20326,6.917999 1.03125,11.875 l -20.53125,76.1875 -0.15625,0.53125 L 87.21875,123.625 32.75,112.96875 32.59375,112.4375 c 0,0 -20.5555,-76.19175 -20.5625,-76.21875 -1.164,-4.93 -0.8085,-8.80475 1.0625,-11.84375 1.723,-2.797 4.706749,-4.706501 8.84375,-5.6875 20.382,-4.835 43.417249,-5.5 65.28125,-5.5 z m 0,0.90625 c -23.414001,0 -45.33175,0.808 -65.09375,5.5 -3.89,0.921999 -6.661,2.672 -8.25,5.25 C 12.14,27.664751 11.8395,31.347 12.9375,36 l 20.5625,76.1875 53.71875,10.5 53.6875,-10.5 L 161.46875,36 c 1.102,-4.653002 0.8005,-8.33525 -0.9375,-11.15625 -1.59001,-2.577999 -4.359,-4.328 -8.25,-5.25 -19.76599,-4.692001 -41.6485,-5.5 -65.0625,-5.5 z m 0,3.21875 c 23.164,0 44.7885,0.77325 64.3125,5.40625 3.074,0.729999 5.14125,1.9605 6.28125,3.8125 1.246,2.027001 1.4335,4.94525 0.5625,8.65625 l -19.78125,74.46875 -51.375,9.78125 L 35.8125,109.65625 16.03125,35.1875 c -0.870999,-3.711002 -0.6875,-6.62925 0.5625,-8.65625 1.141001,-1.851999 3.20325,-3.0825 6.28125,-3.8125 19.519,-4.633001 41.17575,-5.40625 64.34375,-5.40625 z"
         transform="translate(209.766,303.672)"
         style="fill:#008000;fill-opacity:1"
         id="path14" />
    </g>
    <g
       transform="translate(-209.766,-303.672)"
       style="fill:#ffffff;fill-rule:evenodd;stroke-width:0;stroke-linecap:butt;stroke-linejoin:miter;stroke-miterlimit:2.61310005"
       id="g16" />
    <g
       transform="translate(-209.766,-303.672)"
       style="fill:#7f7f7f;fill-rule:evenodd;stroke-width:0;stroke-linecap:butt;stroke-linejoin:miter;stroke-miterlimit:2.61310005"
       id="g20" />
    <g
       transform="translate(-209.766,-303.672)"
       style="fill:#ffffff;fill-rule:evenodd;stroke-width:0;stroke-linecap:butt;stroke-linejoin:miter;stroke-miterlimit:2.61310005"
       id="g24" />
    <g
       transform="translate(-209.766,-303.672)"
       style="fill:#7f7f7f;fill-rule:evenodd;stroke-width:0;stroke-linecap:butt;stroke-linejoin:miter;stroke-miterlimit:2.61310005"
       id="g28" />
    <g
       transform="translate(-209.766,-303.672)"
       style="fill:#ffffff;fill-rule:evenodd;stroke-width:0;stroke-linecap:butt;stroke-linejoin:miter;stroke-miterlimit:2.61310005"
       id="g32" />
    <g
       transform="translate(-209.766,-303.672)"
       style="fill:#008000;fill-opacity:1;fill-rule:evenodd;stroke-width:0;stroke-linecap:butt;stroke-linejoin:miter;stroke-miterlimit:2.61310005"
       id="g36">
      <path
         d="m 285.078,391.629 c 0,0 3.902,-7.219 11.344,-7.07 0,0 5.305,0 8.84,3.168 0,0 1.84,1.804 3.57,2.246 0,0 2.543,0.773 4.125,-1.106 0,0 1.77,-1.84 3.242,-5.781 0,0 1.582,-3.902 4.051,-5.008 0,0 1.785,-0.738 3.609,0.367 0,0 0.996,0.625 0.883,1.805 0,0 -0.109,0.848 -0.734,0.551 l -0.59,-0.403 c 0,0 0.625,1.215 0.109,1.399 0,0 -0.406,0.223 -1.324,-0.664 0,0 -1.586,-1.031 -2.285,0.629 0,0 -0.406,0.957 -0.516,1.914 0,0 -0.957,8.875 -7.144,13.922 0,0 -1.988,1.765 -3.793,1.988 0,0 -0.774,0 -0.481,0.773 0,0 1.032,1.77 1.547,3.536 0,0 1.364,0.738 1.512,2.246 0,0 0,0.367 -0.109,0.48 l -1.032,0 c 0,0 -0.48,-0.48 -0.664,0 0,0 -0.367,0.258 -1.472,-0.039 0,0 -0.442,0.074 -0.516,-1.73 0,0 0,-0.293 -0.297,-0.407 0,0 -0.992,-0.293 -1.508,-1.656 0,0 -0.148,-0.402 -0.406,0.113 0,0 -0.476,0.883 -0.551,2.024 0,0 -0.074,0.148 0.184,0.332 0,0 0.551,0.476 0.476,0.992 0,0 -0.402,-0.145 -1.289,0.039 0,0 -0.035,-0.297 -0.402,-0.406 0,0 -0.258,0.441 -0.48,0.441 l -0.7,0 c 0,0 -0.882,-0.035 -0.625,-2.355 0,0 0.332,-1.106 -0.039,-2.946 0,0 -0.992,-0.296 -1.949,-0.886 0,0 -0.738,-0.293 -0.59,0.441 0,0 0.035,1.66 -0.148,3.649 0,0 -0.074,0.293 0.148,0.55 0,0 0.848,0.887 0.774,1.473 l -0.664,0 c 0,0 -0.149,-0.516 -0.551,-0.551 0,0 -0.406,0.184 -0.332,0.442 0,0 -1.621,0.367 -2.176,-0.184 0,0 -0.109,-0.148 0.074,-0.516 0,0 0.188,-0.218 -0.144,-0.406 0,0 -0.813,-0.219 -0.922,-2.172 0,0 0.074,-1.25 -0.664,-2.023 0,0 -0.442,-0.406 -0.735,0.441 0,0 -0.554,1.399 -1.437,2.723 0,0 -0.481,0.887 0.109,1.363 0,0 0.664,0.555 0.813,0.922 0,0 0.035,0.109 -0.074,0.148 0,0 -0.665,0 -0.774,-0.039 0,0 -0.297,-0.367 -0.48,-0.332 0,0 -0.293,0.297 -0.59,0.332 0,0 -1.617,0.149 -2.539,-0.074 0,0 -0.813,0.113 -0.407,-2.722 0,0 0.297,-1.403 0.813,-2.801 0,0 0.441,-0.883 -0.516,-1.141 0,0 -0.886,-0.258 -1.918,0.918 0,0 -4.457,4.938 -7.992,5.305 0,0 -4.785,0.887 -6.371,-2.539 0,0 -0.422,-1.071 0.184,-3.02 0,0 0.242,-1.402 -1.067,-1.879 0,0 -2.394,-0.773 -1.879,-1.695 0,0 0.293,-0.809 1.805,-0.223 0,0 2.617,0.703 2.984,3.797 0,0 0.075,0.477 0.036,1.031 0,0 -0.145,1.434 1.804,1.399 0,0 2.36,0.219 4.274,-3.168 0,0 1.988,-3.953 4.566,-7.957 z"
         style="fill:#008000;fill-opacity:1"
         id="path38" />
    </g>
    <g
       style="fill:#ff0000"
       id="g2868">
      <g
         id="g40"
         style="fill:#ff0000;fill-opacity:1;fill-rule:evenodd;stroke-width:0;stroke-linecap:butt;stroke-linejoin:miter;stroke-miterlimit:2.61310005"
         transform="translate(-209.766,-303.672)">
        <path
           id="path42"
           style="fill:#ff0000;fill-opacity:1"
           d="m 254.785,344.32 c 1.121,-2.785 1.934,-5.531 -1.269,-5.531 -1.953,0 -3.508,0.789 -4.328,2.91 -0.918,2.371 0.222,3.289 1.601,4.453 1.445,1.207 4.078,3.535 5.09,5.114 1.238,1.957 1.137,3.828 0.09,6.531 -2.289,5.906 -7.391,8.984 -13.09,8.984 -6.988,0 -7.969,-3.91 -5.809,-9.484 l 0.887,-2.285 5.824,0 -0.711,1.828 c -1.3,3.039 -1.242,5.242 1.629,5.242 2.453,0 4.117,-1.289 5.039,-3.66 0.707,-1.832 0.36,-3.078 -0.734,-4.117 -2.117,-2.371 -5.242,-4.078 -6.406,-7.196 -0.407,-1.414 -0.285,-3.121 0.359,-4.785 2.063,-5.324 6.184,-8.234 12.34,-8.234 9.277,0 6.254,7.152 5.101,10.23 l -5.613,0 z" />
      </g>
      <g
         id="g44"
         style="fill:#ff0000;fill-opacity:1;fill-rule:evenodd;stroke-width:0;stroke-linecap:butt;stroke-linejoin:miter;stroke-miterlimit:2.61310005"
         transform="translate(-209.766,-303.672)">
        <path
           id="path46"
           style="fill:#ff0000;fill-opacity:1"
           d="m 255.191,366.074 8.653,-20.945 5.406,0 -8.648,20.945 -5.411,0 z" />
      </g>
      <g
         id="g48"
         style="fill:#ff0000;fill-opacity:1;fill-rule:evenodd;stroke-width:0;stroke-linecap:butt;stroke-linejoin:miter;stroke-miterlimit:2.61310005"
         transform="translate(-209.766,-303.672)">
        <path
           id="path50"
           style="fill:#ff0000;fill-opacity:1"
           d="m 276.531,347.281 0.086,0 c 2.203,-2.414 4.738,-2.711 5.985,-2.711 3.078,0 4.914,1.598 3.199,5.348 l -6.672,16.156 -5.406,0 5.765,-13.965 c 0.844,-2.043 1.145,-3.379 -0.863,-3.453 -2.004,-0.074 -3.418,1.633 -4.254,3.864 l -5.601,13.554 -5.407,0 8.653,-20.945 5.406,0 -0.891,2.152 z" />
      </g>
      <g
         id="g52"
         style="fill:#ff0000;fill-opacity:1;fill-rule:evenodd;stroke-width:0;stroke-linecap:butt;stroke-linejoin:miter;stroke-miterlimit:2.61310005"
         transform="translate(-209.766,-303.672)">
        <path
           id="path54"
           style="fill:#ff0000;fill-opacity:1"
           d="m 296.871,352.406 0.965,-2.34 c 0.391,-1.148 0.027,-1.781 -1.137,-1.781 -2.078,0 -2.953,2.117 -3.969,4.68 l -2.039,4.937 c -1.812,4.086 -1.578,4.828 -0.035,5.016 1.68,-0.039 2.289,-1.414 3.145,-3.082 l 0.801,-1.934 5.406,0 -0.797,1.934 c -1.813,4.379 -4.848,6.793 -10.211,6.793 -4.785,0 -6.594,-2.262 -4.086,-7.836 L 287.723,352 c 2.379,-5.867 6.269,-7.43 10.386,-7.43 5.45,0 6.188,3.047 4.856,6.164 l -0.688,1.672 -5.406,0 z" />
      </g>
      <g
         id="g56"
         style="fill:#ff0000;fill-opacity:1;fill-rule:evenodd;stroke-width:0;stroke-linecap:butt;stroke-linejoin:miter;stroke-miterlimit:2.61310005"
         transform="translate(-209.766,-303.672)">
        <path
           id="path58"
           style="fill:#ff0000;fill-opacity:1"
           d="m 300.207,366.074 11.504,-27.851 5.406,0 -11.504,27.851 -5.406,0 z" />
      </g>
      <g
         id="g60"
         style="fill:#ff0000;fill-opacity:1;fill-rule:evenodd;stroke-width:0;stroke-linecap:butt;stroke-linejoin:miter;stroke-miterlimit:2.61310005"
         transform="translate(-209.766,-303.672)">
        <path
           id="path62"
           style="fill:#ff0000;fill-opacity:1"
           d="m 327.91,366.074 8.649,-20.945 5.41,0 -8.653,20.945 -5.406,0 z" />
      </g>
      <g
         id="g64"
         style="fill:#ff0000;fill-opacity:1;fill-rule:evenodd;stroke-width:0;stroke-linecap:butt;stroke-linejoin:miter;stroke-miterlimit:2.61310005"
         transform="translate(-209.766,-303.672)">
        <path
           id="path66"
           style="fill:#ff0000;fill-opacity:1"
           d="m 349.422,349.09 0.086,0 c 1.293,-1.524 2.312,-2.379 3.347,-2.973 2.012,-1.152 3.024,-1.078 3.829,-1.113 l -2.364,5.719 c -2.886,-0.262 -5.449,0.41 -6.804,3.492 l -5,12.105 -5.411,0 8.653,-20.945 5.199,0 -1.535,3.715 z" />
      </g>
      <g
         id="g68"
         style="fill:#ff0000;fill-opacity:1;fill-rule:evenodd;stroke-width:0;stroke-linecap:butt;stroke-linejoin:miter;stroke-miterlimit:2.61310005"
         transform="translate(-209.766,-303.672)">
        <path
           id="path70"
           style="fill:#ff0000;fill-opacity:1"
           transform="translate(209.766,303.672)"
           d="m 117.3125,41.46875 -0.6875,1.71875 c -0.344,-0.516001 -1.15575,-1.066 -3.09375,-1 0,0 -5.03075,-0.11775 -6.96875,3.03125 l -5.65625,13.125 c 0,-2e-6 -1.98425,4.051 2.59375,4 0,-10e-7 3.08975,0.2775 5.34375,-1.0625 l -0.5625,1.125 5.78125,0 8.65625,-20.9375 -5.40625,0 z M 114,44.9375 c 0.16023,1.17e-4 0.32594,0.01338 0.5,0.03125 0,-2e-6 0.793,0.078 1,0.875 l -5.40625,12.84375 c -2.074,1.538999 -3.75,1.03125 -3.75,1.03125 -1.582,-0.426 -0.3125,-2.40625 -0.3125,-2.40625 l 4.6875,-10.5 c 0,0 0.87783,-1.876758 3.28125,-1.875 z" />
      </g>
    </g>
    <g
       transform="translate(-209.766,-303.672)"
       style="fill:#ffffff;fill-rule:evenodd;stroke-width:0;stroke-linecap:butt;stroke-linejoin:miter;stroke-miterlimit:2.61310005"
       id="g72" />
  </g>
</svg>
